<?xml version="1.0" encoding="UTF-8" standalone="no" ?>
<!DOCTYPE svg PUBLIC "-//W3C//DTD SVG 1.1//EN" "http://www.w3.org/Graphics/SVG/1.1/DTD/svg11.dtd">
<svg xmlns="http://www.w3.org/2000/svg" xmlns:xlink="http://www.w3.org/1999/xlink" version="1.1" width="1080" height="1080" viewBox="0 0 1080 1080" xml:space="preserve">
<desc>Created with Fabric.js 5.2.4</desc>
<defs>
</defs>
<g transform="matrix(1 0 0 1 540 540)" id="3ee6a7e5-7aed-4d7e-aea5-d0780eb82ba1"  >
<rect style="stroke: none; stroke-width: 1; stroke-dasharray: none; stroke-linecap: butt; stroke-dashoffset: 0; stroke-linejoin: miter; stroke-miterlimit: 4; fill: rgb(255,255,255); fill-rule: nonzero; opacity: 1; visibility: hidden;" vector-effect="non-scaling-stroke"  x="-540" y="-540" rx="0" ry="0" width="1080" height="1080" />
</g>
<g transform="matrix(1 0 0 1 540 540)" id="cbf4bbe8-1baf-474a-a0ac-1fd4e93a1610"  >
</g>
<g transform="matrix(1 0 0 1 535.46 520.94)"  >
<path style="stroke: none; stroke-width: 1; stroke-dasharray: none; stroke-linecap: butt; stroke-dashoffset: 0; stroke-linejoin: miter; stroke-miterlimit: 4; fill: rgb(242,197,84); fill-rule: evenodd; opacity: 1;" vector-effect="non-scaling-stroke"  transform=" translate(-376.46, -216.44)" d="M 454.5 13.388 C 443.099 16.164 434.911 22.522 430.688 31.878 C 427.755 38.376 427.123 54.456 429.48 62.62 C 434.806 81.071 447.089 92.463 464.279 94.897 C 481.615 97.352 495.883 90.568 504.576 75.736 C 513.778 60.033 510.423 40.248 496.139 25.989 C 484.795 14.664 468.95 9.869 454.5 13.388 M 455.898 39.27 C 451.545 42.178 449.004 47.275 449.002 53.101 C 448.998 62.414 453.202 69.548 461.029 73.515 C 479.873 83.064 496.263 61.35 482.419 45.176 C 475.55 37.151 463.19 34.399 455.898 39.27 M 239.5 43.208 C 234.356 46.158 233.371 52.994 237.413 57.694 L 239.826 60.5 L 314.66 60.769 C 369.689 60.967 390.235 60.731 392.294 59.878 C 398.246 57.413 399.708 49.554 395.077 44.923 L 392.154 42 L 316.827 42.03 C 262.052 42.053 240.954 42.374 239.5 43.208 M 147.612 84.929 C 141.594 85.783 139 88.562 139 94.156 C 139 97 139.68 98.771 141.455 100.545 L 143.909 103 L 229.02 103 C 288.076 103 314.75 102.669 316.15 101.92 C 317.261 101.325 318.812 99.3 319.598 97.42 C 320.836 94.456 320.836 93.544 319.598 90.58 C 318.812 88.7 317.316 86.704 316.273 86.146 C 314.072 84.968 155.403 83.823 147.612 84.929 M 398 86.387 C 390.235 88.109 382.287 92.65 368 103.529 C 364.975 105.832 352.056 115.456 339.29 124.916 C 326.525 134.376 314.921 143.494 313.503 145.179 C 309.769 149.616 307.928 154.696 307.856 160.761 C 307.741 170.34 312.25 177.827 323.759 187.17 C 328.016 190.627 336 197.298 341.5 201.995 C 347 206.691 358.404 216.088 366.842 222.875 C 375.281 229.662 381.806 235.539 381.342 235.935 C 380.879 236.331 374.875 240.186 368 244.501 C 350.22 255.662 327.388 270.702 321.333 275.241 C 315.862 279.343 311.997 285.764 312.004 290.739 C 312.01 295.241 315.412 299.744 319.802 301.059 C 324.729 302.535 327.793 301.18 344.5 290.139 C 355.178 283.083 363.065 278.008 393.711 258.476 C 407.935 249.411 411 245.784 411 238.018 C 411 231.755 408.918 228.074 401.402 221.05 C 394.125 214.25 376.257 199.787 369.5 195.228 C 367.3 193.743 361.45 189.569 356.5 185.952 C 351.55 182.336 344.643 177.379 341.152 174.938 C 337.661 172.497 333.401 169.313 331.686 167.863 C 328.938 165.538 328.733 165.026 329.962 163.545 C 331.576 161.6 397.179 112.175 400.85 110.139 C 402.373 109.293 404.857 108.982 407.402 109.316 C 412.167 109.942 416.69 114.399 422.708 124.399 C 434.386 143.803 445.199 159.039 449.242 161.789 C 456.163 166.496 460.311 167 492.193 167.004 C 519.297 167.007 521.736 167.151 524.639 168.921 C 528.32 171.166 531.955 178.128 561.496 239.5 C 572.351 262.05 585.855 290.026 591.505 301.669 L 601.779 322.838 L 600.274 327.409 C 596.426 339.098 603.679 350 615.302 350 C 622.834 350 629.67 343.883 630.697 336.224 C 631.479 330.394 630.558 327.766 625.824 322.305 C 623.532 319.662 619.313 312.55 616.447 306.5 C 613.582 300.45 606.408 285.6 600.507 273.5 C 594.606 261.4 584.715 240.925 578.527 228 C 557.837 184.78 542.672 154.533 539.897 150.949 C 538.384 148.996 534.752 146.071 531.824 144.449 L 526.5 141.5 L 496 141 C 473.314 140.628 464.906 140.161 463.18 139.178 C 460.947 137.905 456.557 131.526 444.939 112.675 C 438.905 102.885 432.369 95.511 426.423 91.785 C 417.676 86.304 407.281 84.329 398 86.387 M 546.189 111.039 C 543.363 113.672 543.421 116.93 546.401 122.783 C 549.511 128.894 552.278 131.37 558.894 133.967 C 573.062 139.528 587.019 150.425 595.142 162.267 C 598.968 167.844 599.354 170 596.53 170 C 594.484 170 590 175.837 590 178.5 C 590 179.791 591.165 182.231 592.589 183.923 C 594.836 186.594 595.83 187 600.114 187 C 605.883 187 606.413 187.807 608.006 199.039 C 609.219 207.594 610.661 210.773 614.145 212.575 C 617.93 214.532 620.268 214.364 623.39 211.908 C 628.105 208.199 629.389 203.724 629.391 191 C 629.392 180.651 629.088 178.677 626.348 171.274 C 621.674 158.645 614.682 147.844 604.5 137.528 C 594.933 127.834 587.528 122.305 577.013 117.003 C 561.074 108.966 550.591 106.938 546.189 111.039 M 87.36 129.46 C 83.963 131.839 82.601 136.262 83.98 140.438 C 86.292 147.444 79.91 147 178.299 147 L 267.154 147 L 270.202 143.952 C 272.904 141.25 273.186 140.427 272.687 136.703 C 272.308 133.876 271.268 131.767 269.506 130.252 L 266.888 128 L 178.167 128 C 101.997 128 89.15 128.207 87.36 129.46 M 173.042 178.45 C 170.505 181.506 171.551 184.975 176.533 190.034 C 185.119 198.751 187.435 199.304 218 199.95 C 248.584 200.595 247.78 200.38 256.183 210.188 C 277.421 234.975 282.103 237.015 317.692 236.985 C 338.505 236.968 340.334 236.463 340.818 230.599 C 341.108 227.084 340.666 226.29 335.795 221.571 C 326.92 212.976 323.004 211.586 306 211 C 292.351 210.529 291.219 210.335 286.708 207.683 C 283.617 205.867 280.027 202.312 276.598 197.676 C 269.83 188.524 264.202 183.456 257.12 180.135 L 251.5 177.5 L 212.917 177.197 C 178.975 176.93 174.178 177.081 173.042 178.45 M 433.265 188.542 C 418.889 192.413 406.711 202.73 408.431 209.58 C 409.243 212.816 412.878 216 415.76 216 C 417.071 216 420.249 214.762 422.822 213.25 L 427.5 210.5 L 459.542 210.5 C 488.469 210.5 491.846 210.671 494.278 212.264 C 500.214 216.15 502.196 224 498.619 229.458 C 495.137 234.772 492.169 235.459 470.328 236 C 450.683 236.487 450.088 236.563 447.578 238.924 C 444.049 242.243 444.054 247.722 447.589 251.923 L 450.178 255 L 471.907 255 C 488.247 255 494.882 254.63 498.655 253.51 C 516.79 248.124 527.414 225.507 519.712 208.683 C 515.049 198.498 506.53 191.291 495.764 188.425 C 488.327 186.445 440.719 186.534 433.265 188.542 M 668.646 213.452 C 662.833 218.84 667.312 229 675.5 229 C 682.406 229 687.011 221.645 683.837 215.684 C 682.018 212.269 679.836 211.066 675.396 211.032 C 672.396 211.009 670.58 211.66 668.646 213.452 M 57.299 213.503 C 54.453 215.496 52.667 220.997 53.855 224.106 C 54.359 225.423 55.758 227.39 56.965 228.477 C 59.091 230.393 60.601 230.448 105.83 230.257 L 152.5 230.059 L 154.75 227.474 C 158.037 223.697 157.764 218.61 154.077 214.923 L 151.154 212 L 105.299 212 C 66.116 212 59.133 212.219 57.299 213.503 M 618 247.752 C 614.842 248.287 611 251.792 611 254.14 C 611 255.125 612.288 257.409 613.863 259.215 C 615.438 261.022 617.613 264.243 618.698 266.373 C 620.59 270.09 621.038 270.339 629.829 272.561 C 642.504 275.765 650.059 280.002 659.085 288.966 C 671.823 301.617 676.873 312.751 677.739 330.097 C 678.76 350.531 672.724 366.449 658.588 380.594 C 641.285 397.908 621.496 402.556 595.053 395.515 C 585.754 393.039 585.014 393 547.85 393 C 521.746 393 509.323 393.351 507.595 394.139 C 503.735 395.897 501.597 401.248 503.024 405.573 C 505.255 412.333 505.304 412.342 543.864 412.723 L 578.498 413.066 L 587.499 415.948 C 611.317 423.574 632.696 421.901 654.5 410.705 C 660.876 407.431 664.633 404.455 673.007 396.048 C 681.645 387.377 684.346 383.899 688.187 376.5 C 695.082 363.217 697.804 354.14 699.007 340.422 C 701.508 311.892 692.994 288.25 673.828 270.499 C 666.23 263.463 656.663 257.131 648.5 253.737 C 638.559 249.603 623.971 246.74 618 247.752 M 204.5 249.047 C 195.93 250.393 186.719 253.547 177.5 258.291 C 165.835 264.294 151.152 279.187 145.251 291 C 140.944 299.623 138 309.077 138 314.287 C 138 316.122 139.052 318.206 140.923 320.077 C 143.299 322.453 144.699 323 148.407 323 C 154.261 323 157.771 319.795 160.999 311.5 C 166.634 297.024 177.19 285.386 190.548 278.92 C 209.006 269.985 228.489 269.884 246.785 278.628 C 254.088 282.117 261.709 288.845 273.041 301.806 C 277.284 306.66 277.884 307 282.202 307 C 286.17 307 287.202 306.549 289.508 303.808 C 291.795 301.09 292.099 300.022 291.555 296.62 C 288.797 279.371 264.518 257.914 239.979 251.038 C 231.293 248.605 213.625 247.613 204.5 249.047 M 95.656 265.133 C 94.642 265.722 93.158 267.772 92.357 269.688 C 89.677 276.102 94.155 283 101 283 C 104.56 283 108.732 280.207 109.816 277.099 C 111.148 273.278 110.357 270.177 107.177 266.75 C 104.432 263.791 99.223 263.059 95.656 265.133 M 436.252 278.104 C 424.944 283.701 421.74 297.247 429.356 307.253 C 433.234 312.349 437.99 314.887 443.782 314.952 C 455.249 315.081 463 307.186 463 295.378 C 463 287.397 459.759 282.056 452.818 278.597 C 446.506 275.451 441.889 275.314 436.252 278.104 M 549.355 280.971 C 544.24 283.086 536.693 297.6 532.961 312.5 C 528.63 329.787 530.578 353.34 537.461 366.923 C 541.633 375.155 545.702 376.68 553.749 373.027 C 560.067 370.159 560.755 367.722 557.446 359.919 C 553.205 349.917 552.025 344.27 552.012 333.91 C 551.998 322.592 554.532 311.417 559.133 302.5 C 563.603 293.839 564.17 291.342 562.548 287.46 C 560.37 282.247 553.929 279.079 549.355 280.971 M 213.5 320.206 C 201.512 324.395 199.378 340.702 209.898 347.73 C 214.135 350.561 222.091 350.807 226.5 348.244 C 229.258 346.641 234.95 346.476 297.039 346.199 C 334.185 346.033 370.86 346.326 378.539 346.849 C 391.541 347.734 393.255 348.098 403.5 352.143 L 414.5 356.485 L 442.327 356.801 L 470.153 357.117 L 476.374 354.206 C 491.924 346.929 497.363 336.163 489.473 328.273 C 486.369 325.169 485.513 324.817 482.326 325.334 C 480.077 325.7 476.963 327.467 474.103 330.003 C 465.28 337.825 463.323 338.293 441.595 337.777 L 422.5 337.323 L 412 333.269 C 406.225 331.04 398.264 328.717 394.308 328.108 C 389.51 327.369 361.242 327 309.356 327 L 231.595 327 L 228.548 324.134 C 225.712 321.467 220.145 318.896 217.601 319.079 C 216.995 319.122 215.15 319.63 213.5 320.206 M 71.35 324.931 C 63.539 325.369 60.742 325.915 59.214 327.301 C 54.513 331.567 56.307 340.866 62.23 342.93 C 66.369 344.373 92.205 344.32 95.405 342.861 C 96.779 342.235 98.644 340.164 99.548 338.258 C 101.821 333.467 99.907 328.233 94.975 325.752 C 91.377 323.941 89.905 323.89 71.35 324.931 M 143.5 344.208 C 139.763 346.351 138.927 348.295 139.289 354 C 139.69 360.328 144.083 370.133 147.841 373.09 C 153.444 377.497 164.895 373.266 164.978 366.757 C 165.023 363.217 157.761 346.957 155.254 344.985 C 152.447 342.777 146.662 342.394 143.5 344.208 M 272.078 370.149 C 258.243 386.193 252 391.054 239.242 395.719 C 234.581 397.423 229.567 398.343 223 398.698 C 214.634 399.15 212.045 398.84 201.308 396.106 L 189.117 393 L 150.695 393 L 112.273 393 L 109.636 395.636 C 105.388 399.885 106.468 408.525 111.537 410.835 C 112.919 411.465 127.702 412.157 148.177 412.55 C 182.155 413.202 182.594 413.237 191.794 416.053 C 219.655 424.577 244.744 421.024 266.5 405.472 C 280.251 395.643 291.056 380.13 289.275 372.774 C 288.208 368.37 285.017 366 280.154 366 C 276.121 366 275.286 366.429 272.078 370.149 M 319.923 386.923 C 315.984 390.863 315.934 395.776 319.791 400.093 L 322.583 403.217 L 379.541 403.129 L 436.5 403.04 L 439.359 399.883 C 441.748 397.243 442.123 396.133 441.643 393.113 C 441.283 390.843 439.935 388.478 438.019 386.75 L 434.968 384 L 378.907 384 L 322.846 384 L 319.923 386.923" stroke-linecap="round" />
</g>
<g transform="matrix(1 0 0 1 540 540)"  >
<path style="stroke: none; stroke-width: 1; stroke-dasharray: none; stroke-linecap: butt; stroke-dashoffset: 0; stroke-linejoin: miter; stroke-miterlimit: 4; fill: rgb(0,0,0); fill-opacity: 0; fill-rule: evenodd; opacity: 1;" vector-effect="non-scaling-stroke"  transform=" translate(-381, -235.5)" d="M 0 235.501 L 0 471.003 L 380.75 470.751 L 761.5 470.5 L 761.752 235.25 L 762.004 0 L 381.002 0 L 0 0 L 0 235.501 M 0.492 236 C 0.492 365.525 0.608 418.512 0.75 353.75 C 0.892 288.987 0.892 183.012 0.75 118.25 C 0.608 53.487 0.492 106.475 0.492 236 M 454.5 13.388 C 443.099 16.164 434.911 22.522 430.688 31.878 C 427.755 38.376 427.123 54.456 429.48 62.62 C 434.806 81.071 447.089 92.463 464.279 94.897 C 481.615 97.352 495.883 90.568 504.576 75.736 C 513.778 60.033 510.423 40.248 496.139 25.989 C 484.795 14.664 468.95 9.869 454.5 13.388 M 455.898 39.27 C 451.545 42.178 449.004 47.275 449.002 53.101 C 448.998 62.414 453.202 69.548 461.029 73.515 C 479.873 83.064 496.263 61.35 482.419 45.176 C 475.55 37.151 463.19 34.399 455.898 39.27 M 239.5 43.208 C 234.356 46.158 233.371 52.994 237.413 57.694 L 239.826 60.5 L 314.66 60.769 C 369.689 60.967 390.235 60.731 392.294 59.878 C 398.246 57.413 399.708 49.554 395.077 44.923 L 392.154 42 L 316.827 42.03 C 262.052 42.053 240.954 42.374 239.5 43.208 M 147.612 84.929 C 141.594 85.783 139 88.562 139 94.156 C 139 97 139.68 98.771 141.455 100.545 L 143.909 103 L 229.02 103 C 288.076 103 314.75 102.669 316.15 101.92 C 317.261 101.325 318.812 99.3 319.598 97.42 C 320.836 94.456 320.836 93.544 319.598 90.58 C 318.812 88.7 317.316 86.704 316.273 86.146 C 314.072 84.968 155.403 83.823 147.612 84.929 M 398 86.387 C 390.235 88.109 382.287 92.65 368 103.529 C 364.975 105.832 352.056 115.456 339.29 124.916 C 326.525 134.376 314.921 143.494 313.503 145.179 C 309.769 149.616 307.928 154.696 307.856 160.761 C 307.741 170.34 312.25 177.827 323.759 187.17 C 328.016 190.627 336 197.298 341.5 201.995 C 347 206.691 358.404 216.088 366.842 222.875 C 375.281 229.662 381.806 235.539 381.342 235.935 C 380.879 236.331 374.875 240.186 368 244.501 C 350.22 255.662 327.388 270.702 321.333 275.241 C 315.862 279.343 311.997 285.764 312.004 290.739 C 312.01 295.241 315.412 299.744 319.802 301.059 C 324.729 302.535 327.793 301.18 344.5 290.139 C 355.178 283.083 363.065 278.008 393.711 258.476 C 407.935 249.411 411 245.784 411 238.018 C 411 231.755 408.918 228.074 401.402 221.05 C 394.125 214.25 376.257 199.787 369.5 195.228 C 367.3 193.743 361.45 189.569 356.5 185.952 C 351.55 182.336 344.643 177.379 341.152 174.938 C 337.661 172.497 333.401 169.313 331.686 167.863 C 328.938 165.538 328.733 165.026 329.962 163.545 C 331.576 161.6 397.179 112.175 400.85 110.139 C 402.373 109.293 404.857 108.982 407.402 109.316 C 412.167 109.942 416.69 114.399 422.708 124.399 C 434.386 143.803 445.199 159.039 449.242 161.789 C 456.163 166.496 460.311 167 492.193 167.004 C 519.297 167.007 521.736 167.151 524.639 168.921 C 528.32 171.166 531.955 178.128 561.496 239.5 C 572.351 262.05 585.855 290.026 591.505 301.669 L 601.779 322.838 L 600.274 327.409 C 596.426 339.098 603.679 350 615.302 350 C 622.834 350 629.67 343.883 630.697 336.224 C 631.479 330.394 630.558 327.766 625.824 322.305 C 623.532 319.662 619.313 312.55 616.447 306.5 C 613.582 300.45 606.408 285.6 600.507 273.5 C 594.606 261.4 584.715 240.925 578.527 228 C 557.837 184.78 542.672 154.533 539.897 150.949 C 538.384 148.996 534.752 146.071 531.824 144.449 L 526.5 141.5 L 496 141 C 473.314 140.628 464.906 140.161 463.18 139.178 C 460.947 137.905 456.557 131.526 444.939 112.675 C 438.905 102.885 432.369 95.511 426.423 91.785 C 417.676 86.304 407.281 84.329 398 86.387 M 546.189 111.039 C 543.363 113.672 543.421 116.93 546.401 122.783 C 549.511 128.894 552.278 131.37 558.894 133.967 C 573.062 139.528 587.019 150.425 595.142 162.267 C 598.968 167.844 599.354 170 596.53 170 C 594.484 170 590 175.837 590 178.5 C 590 179.791 591.165 182.231 592.589 183.923 C 594.836 186.594 595.83 187 600.114 187 C 605.883 187 606.413 187.807 608.006 199.039 C 609.219 207.594 610.661 210.773 614.145 212.575 C 617.93 214.532 620.268 214.364 623.39 211.908 C 628.105 208.199 629.389 203.724 629.391 191 C 629.392 180.651 629.088 178.677 626.348 171.274 C 621.674 158.645 614.682 147.844 604.5 137.528 C 594.933 127.834 587.528 122.305 577.013 117.003 C 561.074 108.966 550.591 106.938 546.189 111.039 M 87.36 129.46 C 83.963 131.839 82.601 136.262 83.98 140.438 C 86.292 147.444 79.91 147 178.299 147 L 267.154 147 L 270.202 143.952 C 272.904 141.25 273.186 140.427 272.687 136.703 C 272.308 133.876 271.268 131.767 269.506 130.252 L 266.888 128 L 178.167 128 C 101.997 128 89.15 128.207 87.36 129.46 M 173.042 178.45 C 170.505 181.506 171.551 184.975 176.533 190.034 C 185.119 198.751 187.435 199.304 218 199.95 C 248.584 200.595 247.78 200.38 256.183 210.188 C 277.421 234.975 282.103 237.015 317.692 236.985 C 338.505 236.968 340.334 236.463 340.818 230.599 C 341.108 227.084 340.666 226.29 335.795 221.571 C 326.92 212.976 323.004 211.586 306 211 C 292.351 210.529 291.219 210.335 286.708 207.683 C 283.617 205.867 280.027 202.312 276.598 197.676 C 269.83 188.524 264.202 183.456 257.12 180.135 L 251.5 177.5 L 212.917 177.197 C 178.975 176.93 174.178 177.081 173.042 178.45 M 433.265 188.542 C 418.889 192.413 406.711 202.73 408.431 209.58 C 409.243 212.816 412.878 216 415.76 216 C 417.071 216 420.249 214.762 422.822 213.25 L 427.5 210.5 L 459.542 210.5 C 488.469 210.5 491.846 210.671 494.278 212.264 C 500.214 216.15 502.196 224 498.619 229.458 C 495.137 234.772 492.169 235.459 470.328 236 C 450.683 236.487 450.088 236.563 447.578 238.924 C 444.049 242.243 444.054 247.722 447.589 251.923 L 450.178 255 L 471.907 255 C 488.247 255 494.882 254.63 498.655 253.51 C 516.79 248.124 527.414 225.507 519.712 208.683 C 515.049 198.498 506.53 191.291 495.764 188.425 C 488.327 186.445 440.719 186.534 433.265 188.542 M 668.646 213.452 C 662.833 218.84 667.312 229 675.5 229 C 682.406 229 687.011 221.645 683.837 215.684 C 682.018 212.269 679.836 211.066 675.396 211.032 C 672.396 211.009 670.58 211.66 668.646 213.452 M 57.299 213.503 C 54.453 215.496 52.667 220.997 53.855 224.106 C 54.359 225.423 55.758 227.39 56.965 228.477 C 59.091 230.393 60.601 230.448 105.83 230.257 L 152.5 230.059 L 154.75 227.474 C 158.037 223.697 157.764 218.61 154.077 214.923 L 151.154 212 L 105.299 212 C 66.116 212 59.133 212.219 57.299 213.503 M 618 247.752 C 614.842 248.287 611 251.792 611 254.14 C 611 255.125 612.288 257.409 613.863 259.215 C 615.438 261.022 617.613 264.243 618.698 266.373 C 620.59 270.09 621.038 270.339 629.829 272.561 C 642.504 275.765 650.059 280.002 659.085 288.966 C 671.823 301.617 676.873 312.751 677.739 330.097 C 678.76 350.531 672.724 366.449 658.588 380.594 C 641.285 397.908 621.496 402.556 595.053 395.515 C 585.754 393.039 585.014 393 547.85 393 C 521.746 393 509.323 393.351 507.595 394.139 C 503.735 395.897 501.597 401.248 503.024 405.573 C 505.255 412.333 505.304 412.342 543.864 412.723 L 578.498 413.066 L 587.499 415.948 C 611.317 423.574 632.696 421.901 654.5 410.705 C 660.876 407.431 664.633 404.455 673.007 396.048 C 681.645 387.377 684.346 383.899 688.187 376.5 C 695.082 363.217 697.804 354.14 699.007 340.422 C 701.508 311.892 692.994 288.25 673.828 270.499 C 666.23 263.463 656.663 257.131 648.5 253.737 C 638.559 249.603 623.971 246.74 618 247.752 M 204.5 249.047 C 195.93 250.393 186.719 253.547 177.5 258.291 C 165.835 264.294 151.152 279.187 145.251 291 C 140.944 299.623 138 309.077 138 314.287 C 138 316.122 139.052 318.206 140.923 320.077 C 143.299 322.453 144.699 323 148.407 323 C 154.261 323 157.771 319.795 160.999 311.5 C 166.634 297.024 177.19 285.386 190.548 278.92 C 209.006 269.985 228.489 269.884 246.785 278.628 C 254.088 282.117 261.709 288.845 273.041 301.806 C 277.284 306.66 277.884 307 282.202 307 C 286.17 307 287.202 306.549 289.508 303.808 C 291.795 301.09 292.099 300.022 291.555 296.62 C 288.797 279.371 264.518 257.914 239.979 251.038 C 231.293 248.605 213.625 247.613 204.5 249.047 M 95.656 265.133 C 94.642 265.722 93.158 267.772 92.357 269.688 C 89.677 276.102 94.155 283 101 283 C 104.56 283 108.732 280.207 109.816 277.099 C 111.148 273.278 110.357 270.177 107.177 266.75 C 104.432 263.791 99.223 263.059 95.656 265.133 M 436.252 278.104 C 424.944 283.701 421.74 297.247 429.356 307.253 C 433.234 312.349 437.99 314.887 443.782 314.952 C 455.249 315.081 463 307.186 463 295.378 C 463 287.397 459.759 282.056 452.818 278.597 C 446.506 275.451 441.889 275.314 436.252 278.104 M 549.355 280.971 C 544.24 283.086 536.693 297.6 532.961 312.5 C 528.63 329.787 530.578 353.34 537.461 366.923 C 541.633 375.155 545.702 376.68 553.749 373.027 C 560.067 370.159 560.755 367.722 557.446 359.919 C 553.205 349.917 552.025 344.27 552.012 333.91 C 551.998 322.592 554.532 311.417 559.133 302.5 C 563.603 293.839 564.17 291.342 562.548 287.46 C 560.37 282.247 553.929 279.079 549.355 280.971 M 213.5 320.206 C 201.512 324.395 199.378 340.702 209.898 347.73 C 214.135 350.561 222.091 350.807 226.5 348.244 C 229.258 346.641 234.95 346.476 297.039 346.199 C 334.185 346.033 370.86 346.326 378.539 346.849 C 391.541 347.734 393.255 348.098 403.5 352.143 L 414.5 356.485 L 442.327 356.801 L 470.153 357.117 L 476.374 354.206 C 491.924 346.929 497.363 336.163 489.473 328.273 C 486.369 325.169 485.513 324.817 482.326 325.334 C 480.077 325.7 476.963 327.467 474.103 330.003 C 465.28 337.825 463.323 338.293 441.595 337.777 L 422.5 337.323 L 412 333.269 C 406.225 331.04 398.264 328.717 394.308 328.108 C 389.51 327.369 361.242 327 309.356 327 L 231.595 327 L 228.548 324.134 C 225.712 321.467 220.145 318.896 217.601 319.079 C 216.995 319.122 215.15 319.63 213.5 320.206 M 71.35 324.931 C 63.539 325.369 60.742 325.915 59.214 327.301 C 54.513 331.567 56.307 340.866 62.23 342.93 C 66.369 344.373 92.205 344.32 95.405 342.861 C 96.779 342.235 98.644 340.164 99.548 338.258 C 101.821 333.467 99.907 328.233 94.975 325.752 C 91.377 323.941 89.905 323.89 71.35 324.931 M 143.5 344.208 C 139.763 346.351 138.927 348.295 139.289 354 C 139.69 360.328 144.083 370.133 147.841 373.09 C 153.444 377.497 164.895 373.266 164.978 366.757 C 165.023 363.217 157.761 346.957 155.254 344.985 C 152.447 342.777 146.662 342.394 143.5 344.208 M 272.078 370.149 C 258.243 386.193 252 391.054 239.242 395.719 C 234.581 397.423 229.567 398.343 223 398.698 C 214.634 399.15 212.045 398.84 201.308 396.106 L 189.117 393 L 150.695 393 L 112.273 393 L 109.636 395.636 C 105.388 399.885 106.468 408.525 111.537 410.835 C 112.919 411.465 127.702 412.157 148.177 412.55 C 182.155 413.202 182.594 413.237 191.794 416.053 C 219.655 424.577 244.744 421.024 266.5 405.472 C 280.251 395.643 291.056 380.13 289.275 372.774 C 288.208 368.37 285.017 366 280.154 366 C 276.121 366 275.286 366.429 272.078 370.149 M 319.923 386.923 C 315.984 390.863 315.934 395.776 319.791 400.093 L 322.583 403.217 L 379.541 403.129 L 436.5 403.04 L 439.359 399.883 C 441.748 397.243 442.123 396.133 441.643 393.113 C 441.283 390.843 439.935 388.478 438.019 386.75 L 434.968 384 L 378.907 384 L 322.846 384 L 319.923 386.923" stroke-linecap="round" />
</g>
</svg>