<?xml version="1.0" encoding="UTF-8" standalone="no" ?>
<!DOCTYPE svg PUBLIC "-//W3C//DTD SVG 1.1//EN" "http://www.w3.org/Graphics/SVG/1.1/DTD/svg11.dtd">
<svg xmlns="http://www.w3.org/2000/svg" xmlns:xlink="http://www.w3.org/1999/xlink" version="1.1" width="1080" height="1080" viewBox="0 0 1080 1080" xml:space="preserve">
<desc>Created with Fabric.js 5.2.4</desc>
<defs>
</defs>
<g transform="matrix(1 0 0 1 540 540)" id="c21ffabb-e89e-49a8-b94e-e9d293eaffbb"  >
<rect style="stroke: none; stroke-width: 1; stroke-dasharray: none; stroke-linecap: butt; stroke-dashoffset: 0; stroke-linejoin: miter; stroke-miterlimit: 4; fill: rgb(255,255,255); fill-rule: nonzero; opacity: 1; visibility: hidden;" vector-effect="non-scaling-stroke"  x="-540" y="-540" rx="0" ry="0" width="1080" height="1080" />
</g>
<g transform="matrix(1 0 0 1 540 540)" id="83590c4d-ff78-430e-bf11-fb8ef0e47a55"  >
</g>
<g transform="matrix(1 0 0 1 545.09 537.05)"  >
<path style="stroke: none; stroke-width: 1; stroke-dasharray: none; stroke-linecap: butt; stroke-dashoffset: 0; stroke-linejoin: miter; stroke-miterlimit: 4; fill: rgb(214,158,50); fill-rule: evenodd; opacity: 1;" vector-effect="non-scaling-stroke"  transform=" translate(-274.59, -278.05)" d="M 261.876 28.75 C 240.219 51.689 232.683 80.928 242.682 103.222 C 245.812 110.201 254.6 119 258.44 119 L 261 119 L 261 98.468 C 261 76.025 261.766 71.975 266.407 69.86 C 269.486 68.458 273.555 70.698 275.045 74.617 C 275.57 75.999 276.007 86.213 276.015 97.315 C 276.024 108.417 276.414 118.105 276.883 118.844 C 278.913 122.048 290.111 112.703 294.329 104.284 C 301.993 88.99 300.103 67.951 289.329 48.634 C 284.342 39.692 270.516 23.171 267.902 23.032 C 267.573 23.014 264.862 25.587 261.876 28.75 M 213.223 27.557 C 210.099 29.744 210.149 35.852 213.314 38.826 C 218.232 43.446 225 40.082 225 33.018 C 225 28.613 222.394 26 218 26 C 216.595 26 214.445 26.701 213.223 27.557 M 314.174 28.314 C 311.286 31.389 311.348 36.039 314.314 38.826 C 318.362 42.629 323.856 41.14 325.933 35.677 C 328.746 28.278 319.593 22.546 314.174 28.314 M 183.174 41.314 C 178.698 46.079 181.642 54 187.889 54 C 194.89 54 197.651 46.56 192.545 41.455 C 189.465 38.374 185.986 38.322 183.174 41.314 M 344.455 41.455 C 341.455 44.454 341.323 47.87 344.073 51.365 C 346.939 55.009 352.061 55.009 354.927 51.365 C 357.292 48.359 357.451 47.084 355.89 43.657 C 354.777 41.216 351.217 39 348.407 39 C 347.583 39 345.805 40.105 344.455 41.455 M 92.12 70.905 C 90.539 71.906 90.863 75.266 94.151 92 C 103.941 141.82 134.794 180.442 173 190.704 C 182.751 193.323 201.584 193.115 209.454 190.301 L 215.408 188.173 L 218.954 191.841 C 224.009 197.07 258.259 237.867 259.715 240.392 C 261.445 243.395 261.508 279.336 259.782 278.761 C 259.112 278.537 254.812 272.762 250.226 265.927 C 245.64 259.092 240.033 251.601 237.765 249.28 C 232.805 244.203 222.869 238.817 214 236.397 C 204.938 233.925 186.955 233.93 177.151 236.407 L 169.803 238.264 L 170.384 241.382 C 170.704 243.097 173.071 248.702 175.644 253.838 C 183.794 270.107 197.892 282.946 211.46 286.458 C 217.886 288.121 229 288.548 229 287.132 C 229 286.655 226.547 282.578 223.549 278.073 C 217.128 268.425 216.624 267.12 217.96 263.606 C 221.018 255.561 229.76 260.729 240.965 277.206 C 244.441 282.318 250.371 290.596 254.142 295.602 L 261 304.704 L 261 385.775 L 261 466.847 L 263.589 469.923 C 266.763 473.696 270.72 473.992 273.823 470.688 L 275.994 468.377 L 276.134 355.938 C 276.21 294.097 276.613 242.6 277.03 241.5 C 277.446 240.4 287.553 228.093 299.49 214.151 C 323.71 185.861 320.303 188.212 332.5 191.374 C 344.833 194.57 361.98 192.74 375.841 186.748 C 411.816 171.194 439.182 128.313 445.373 77.796 C 446.246 70.67 445.102 70 432.074 70 C 388.849 70 357.399 79.75 332.31 100.927 C 316.38 114.373 308.115 129.818 305.781 150.5 C 304.819 159.024 304.905 161.876 306.36 169.826 L 308.067 179.151 L 303.283 184.999 C 300.653 188.215 293.775 196.685 288 203.823 C 282.225 210.96 277.43 216.732 277.344 216.65 C 277.257 216.567 276.956 199.175 276.675 178 C 276.393 156.825 276.126 139.405 276.081 139.289 C 276.036 139.173 275.015 138.16 273.811 137.039 C 272.415 135.738 270.265 135 267.868 135 C 260.924 135 261 134.526 261 177.723 C 261 198.775 260.663 215.98 260.25 215.956 C 259.837 215.932 255.9 211.589 251.5 206.304 C 247.1 201.02 240.751 193.503 237.392 189.598 C 229.263 180.152 228.747 179.054 229.962 173.79 C 231.498 167.129 231.191 149.75 229.394 141.697 C 222.397 110.327 193.847 86.176 150.568 75.017 C 134.656 70.915 96.359 68.22 92.12 70.905 M 142.75 100.08 C 141.611 100.743 141 102.321 141 104.596 C 141 107.751 142.526 109.675 156.631 124.296 C 165.228 133.208 174.462 142.703 177.153 145.395 C 179.843 148.087 181.898 150.435 181.72 150.613 C 181.542 150.791 178.64 150.102 175.27 149.082 C 171.9 148.062 163.966 146.179 157.637 144.899 C 146.385 142.623 146.086 142.612 144.066 144.441 C 141.296 146.947 141.456 148.31 144.99 152.336 C 151.749 160.033 169.407 166.871 184.716 167.718 C 194.648 168.268 195.074 168.391 200.066 172.142 C 205.644 176.333 208.718 176.886 212.535 174.385 C 214.46 173.124 215 171.912 215 168.859 C 215 165.522 214.302 164.253 210.25 160.224 C 205.652 155.651 205.432 155.158 203.368 144.817 C 201.045 133.176 195.098 119.3 190.643 115.128 C 185.749 110.543 181 114.523 181 123.209 L 181 127.323 L 169.75 116.341 C 152.889 99.881 148.073 96.98 142.75 100.08 M 384.882 100.757 C 383.441 101.715 376.466 108.033 369.382 114.795 L 356.5 127.09 L 355.911 122.295 C 355.118 115.836 354.224 114.094 351.334 113.369 C 348.036 112.541 345.045 115.483 340.617 123.91 C 337.071 130.658 333.681 141.652 332.543 150.099 C 332.039 153.837 330.993 155.663 326.961 159.846 C 322.764 164.201 322 165.586 322 168.842 C 322 176.82 329.054 178.139 336.856 171.62 C 340.638 168.461 341.287 168.285 351.296 167.718 C 366.714 166.845 382.358 161.188 391.036 153.349 C 395.585 149.238 396.025 146.718 392.585 144.464 C 389.725 142.59 384.52 143.296 366.087 148.059 C 359.811 149.681 354.57 150.894 354.443 150.754 C 354.315 150.614 361.847 142.625 371.18 133 C 395.314 108.111 396 107.328 396 104.677 C 396 99.572 389.895 97.419 384.882 100.757 M 60.189 125.039 C 57.346 127.687 57.25 133.25 60 136 C 62.554 138.554 68.106 138.645 70.345 136.171 C 74.436 131.65 70.926 123 65 123 C 63.557 123 61.392 123.918 60.189 125.039 M 469.235 124.037 C 467.99 124.537 466.502 126.178 465.93 127.684 C 463.871 133.098 466.954 138 472.416 138 C 479.681 138 482.113 128.909 476.087 124.282 C 474.223 122.851 472.354 122.784 469.235 124.037 M 44.695 151.111 C 38.675 154.613 41.88 165 48.98 165 C 51.905 165 56 160.625 56 157.5 C 56 152.192 49.323 148.418 44.695 151.111 M 484.736 151.25 C 479.071 155.552 481.964 165 488.947 165 C 492.348 165 496 161.117 496 157.5 C 496 151.857 489.03 147.99 484.736 151.25 M 76.833 166.841 C 68.622 170.954 71.662 183 80.911 183 C 84.051 183 85.333 182.393 87.411 179.923 C 88.835 178.231 90 176.192 90 175.391 C 90 173.914 87.359 167 86.794 167 C 86.625 167 85.06 166.591 83.316 166.091 C 80.937 165.408 79.319 165.595 76.833 166.841 M 453.421 166.419 C 444.932 170.115 447.884 183 457.22 183 C 466.726 183 469.514 170.903 461.02 166.51 C 457.535 164.708 457.355 164.706 453.421 166.419 M 34.223 180.557 C 30.843 182.924 31.122 189.164 34.734 192.006 C 39.793 195.985 46 192.942 46 186.483 C 46 180.44 39.243 177.04 34.223 180.557 M 494.189 181.039 C 489.511 185.397 492.943 194 499.36 194 C 502.757 194 507 189.935 507 186.68 C 507 185.354 506.067 183.084 504.927 181.635 C 502.343 178.349 497.372 178.073 494.189 181.039 M 133.25 197.662 C 132.432 197.992 132 200.386 132 204.583 L 132 211 L 126.622 211 C 120.355 211 118.719 212.36 119.182 217.185 L 119.5 220.5 L 125.75 220.798 L 132 221.095 L 132 226.476 C 132 232.143 133.633 235 136.871 235 C 139.721 235 140.999 232.857 141.015 228.05 C 141.024 225.547 141.371 222.965 141.787 222.31 C 142.203 221.656 145.009 220.981 148.022 220.81 C 153.421 220.504 153.505 220.452 153.818 217.185 C 154.269 212.494 152.61 211 146.95 211 L 142.144 211 L 141.449 205.25 C 141.066 202.088 140.304 198.938 139.754 198.25 C 138.754 196.999 135.6 196.714 133.25 197.662 M 429.222 205.233 C 427.969 205.837 424.773 209.294 422.119 212.915 C 417.617 219.06 379.967 273.327 366.21 293.5 C 362.835 298.45 357.919 305.425 355.286 309 C 351.191 314.562 350.5 316.171 350.5 320.145 C 350.5 325.801 351.936 327.586 361.5 333.817 C 371.703 340.464 383.784 353.044 387.73 361.13 C 396.228 378.544 396.044 396 387.362 396 C 381.378 396 379.163 392.862 377.905 382.607 C 376.095 367.843 365.556 353.767 348.907 343.875 C 345.232 341.692 341.524 339.132 340.669 338.187 C 339.332 336.71 339.071 331.2 338.807 298.984 C 338.504 261.958 338.472 261.451 336.197 257.483 C 329.481 245.77 313.048 244.948 306.556 256.001 C 304.54 259.432 304.5 260.732 304.5 322.5 C 304.5 384.957 304.519 385.54 306.661 390.176 C 309.019 395.279 313.209 398.645 342.5 418.974 C 350.75 424.699 364.25 434.216 372.5 440.123 C 392.959 454.77 398.511 458 403.223 458 C 407.79 458 413.562 455.753 416.835 452.702 C 418.134 451.491 438.89 421.025 462.959 385 C 487.028 348.975 509.108 316.027 512.027 311.782 C 516.546 305.209 517.333 303.382 517.333 299.468 C 517.333 295.642 516.803 294.342 514.17 291.709 C 510.13 287.668 504.422 287.315 500.637 290.871 C 499.275 292.151 489.494 305.809 478.9 321.223 C 459.264 349.794 456.787 352.542 451.834 351.246 C 449.315 350.588 446 346.244 446 343.602 C 446 341.646 459.863 321.131 490.667 277.5 C 497.268 268.15 503.194 259.517 503.835 258.316 C 508.255 250.031 500.494 240.189 491.902 243.184 C 488.456 244.385 486.881 246.484 457.527 289 C 444.426 307.975 432.564 324.738 431.167 326.25 C 426.222 331.601 417.984 328.783 418.014 321.75 C 418.025 319.231 420.503 315.012 429.028 303 C 435.079 294.475 442.061 284.575 444.544 281 C 447.026 277.425 452.042 270.225 455.689 265 C 483.096 225.733 483.738 224.407 478.411 218.077 C 476.263 215.524 475.093 215 471.546 215 C 468.863 215 466.381 215.703 464.885 216.888 C 463.573 217.926 458.45 224.695 453.5 231.93 C 448.55 239.164 439.325 252.493 433 261.548 C 426.675 270.603 417.317 284.038 412.203 291.404 C 402.172 305.854 399.198 308.323 394.435 306.152 C 391.454 304.794 389.697 300.656 390.517 296.924 C 390.846 295.424 393.873 290.439 397.243 285.848 C 400.612 281.257 409.435 268.725 416.848 258 C 424.261 247.275 432.615 235.222 435.413 231.215 C 445.65 216.556 446.371 214.553 443.452 208.907 C 441.094 204.347 434.561 202.66 429.222 205.233 M 362.635 216.073 C 357.623 220.015 360.253 229 366.418 229 C 370.227 229 371.956 227.985 373.616 224.776 C 376.208 219.763 372.441 214 366.57 214 C 365.855 214 364.084 214.933 362.635 216.073 M 35.539 229.938 C 35.22 230.453 34.242 235.966 33.366 242.188 C 31.326 256.682 32.025 281.242 34.87 295 C 39.45 317.147 46.369 331.535 69.366 366.734 C 78.306 380.418 87.293 394.367 89.336 397.73 C 92.124 402.319 94.123 404.365 97.342 405.923 C 104.937 409.6 107.608 408.93 118.929 400.505 C 124.468 396.382 129 392.393 129 391.64 C 129 390.887 124.938 384.698 119.972 377.886 C 99.384 349.64 95.099 341.728 90.441 323.368 C 87.626 312.271 85.483 297.79 86.329 295.585 C 87.471 292.61 92.786 293.87 104.268 299.838 C 119.425 307.716 132.713 316.037 138.619 321.349 C 141.304 323.763 149.107 333.722 155.959 343.48 C 162.812 353.239 168.955 361.429 169.61 361.681 C 170.266 361.932 173.21 360.451 176.151 358.389 C 192.302 347.067 194 345.17 194 338.451 C 194 332.995 192.053 329.745 179.321 313.938 C 144.685 270.939 130.696 257.771 106.697 245.577 C 97.791 241.052 79.936 234.592 70.704 232.556 C 65.215 231.345 45.544 229 40.873 229 C 38.258 229 35.857 229.422 35.539 229.938 M 224.98 316.038 C 223.645 318.531 224.524 321.675 226.913 322.954 C 230.853 325.062 235.032 318.432 231.8 315.2 C 229.926 313.326 226.185 313.785 224.98 316.038 M 113.094 327.906 C 109.849 331.151 110.393 335.754 114.831 342.595 C 119.086 349.155 146.423 387.537 148.721 390.179 C 150.068 391.727 150.683 391.498 156.591 387.248 C 160.116 384.712 163 382.233 163 381.739 C 163 380.936 138.061 344.847 130.5 334.708 C 126.66 329.56 123.42 327.266 118.844 326.458 C 115.917 325.941 114.77 326.23 113.094 327.906 M 220.02 364.284 C 214.661 366.996 214.265 373.616 219.24 377.33 C 221.562 379.064 222.238 379.144 224.975 378.011 C 231.608 375.263 231.797 367.615 225.316 364.163 C 222.679 362.759 223.052 362.75 220.02 364.284 M 174.622 392.639 C 169.022 395.672 155.234 405.948 154.621 407.545 C 153.086 411.547 155.908 419.26 159.398 420.599 C 160.16 420.892 166.455 417.308 173.387 412.634 C 180.319 407.961 186.893 403.851 187.995 403.502 C 192.346 402.121 189.36 394.018 183.785 392.075 C 179.733 390.662 178.084 390.764 174.622 392.639 M 297.966 414.82 C 291.933 417.494 288.009 423.584 288.004 430.282 C 287.996 440.143 289.87 442.256 312.646 458.069 C 320.816 463.741 335.15 473.84 344.5 480.511 C 373.335 501.086 376.721 503.218 381.311 503.694 C 389.646 504.56 398.017 497.776 399.509 488.949 C 400.039 485.811 399.678 483.931 397.843 480.267 C 395.832 476.252 393.364 474.095 380.427 465.045 C 364.405 453.836 362.271 452.322 332.188 430.802 C 321.566 423.204 311.576 416.315 309.988 415.494 C 307.027 413.962 300.701 413.608 297.966 414.82 M 191.446 418.125 C 180.291 425.173 169.875 433.341 168.396 436.201 C 167.396 438.134 167.043 440.418 167.428 442.467 C 168.042 445.74 212.37 511.318 219.903 520.097 C 224.682 525.666 232.591 529.635 242.805 531.59 C 252.984 533.537 288 533.586 288 531.653 C 288 530.062 270.069 503.632 231.581 448.49 C 226.586 441.334 220.7 432.8 218.5 429.524 C 216.3 426.249 212.599 421.641 210.276 419.284 C 206.46 415.413 205.587 415 201.222 415 C 197.534 415 195.222 415.739 191.446 418.125 M 93.223 441.557 C 89.856 443.914 90.121 450.164 93.707 452.984 C 100.525 458.347 108.906 448.57 102.961 442.189 C 100.569 439.621 96.374 439.349 93.223 441.557 M 136.455 467.05 C 132.367 471.567 135.003 479.02 141.225 480.539 C 143.421 481.075 144.536 480.618 146.975 478.179 C 150.529 474.625 150.827 471.322 147.927 467.635 C 145.267 464.253 139.264 463.946 136.455 467.05 M 240.121 500.71 C 233.783 503.833 232.376 512.838 237.328 518.594 C 238.95 520.481 240.856 521.342 244.256 521.725 C 248.604 522.215 249.203 521.997 252.473 518.727 C 255.435 515.765 256 514.498 256 510.823 C 256 505.824 254.151 502.646 249.989 500.494 C 246.316 498.595 244.326 498.639 240.121 500.71 M 322.2 506.2 C 320.542 507.858 320.696 511.503 322.487 512.989 C 323.34 513.697 325.046 513.954 326.487 513.593 C 330.763 512.519 329.462 505 325 505 C 324.12 505 322.86 505.54 322.2 506.2" stroke-linecap="round" />
</g>
<g transform="matrix(1 0 0 1 540 540)"  >
<path style="stroke: none; stroke-width: 1; stroke-dasharray: none; stroke-linecap: butt; stroke-dashoffset: 0; stroke-linejoin: miter; stroke-miterlimit: 4; fill: rgb(0,0,0); fill-opacity: 0; fill-rule: evenodd; opacity: 1;" vector-effect="non-scaling-stroke"  transform=" translate(-269.5, -281)" d="M 0 281.002 L 0 562.004 L 269.25 561.752 L 538.5 561.5 L 538.752 280.75 L 539.004 0 L 269.502 0 L 0 0 L 0 281.002 M 0.493 281.5 C 0.493 436.05 0.609 499.126 0.75 421.669 C 0.891 344.212 0.891 217.762 0.75 140.669 C 0.609 63.576 0.493 126.95 0.493 281.5 M 261.876 28.75 C 240.219 51.689 232.683 80.928 242.682 103.222 C 245.812 110.201 254.6 119 258.44 119 L 261 119 L 261 98.468 C 261 76.025 261.766 71.975 266.407 69.86 C 269.486 68.458 273.555 70.698 275.045 74.617 C 275.57 75.999 276.007 86.213 276.015 97.315 C 276.024 108.417 276.414 118.105 276.883 118.844 C 278.913 122.048 290.111 112.703 294.329 104.284 C 301.993 88.99 300.103 67.951 289.329 48.634 C 284.342 39.692 270.516 23.171 267.902 23.032 C 267.573 23.014 264.862 25.587 261.876 28.75 M 213.223 27.557 C 210.099 29.744 210.149 35.852 213.314 38.826 C 218.232 43.446 225 40.082 225 33.018 C 225 28.613 222.394 26 218 26 C 216.595 26 214.445 26.701 213.223 27.557 M 314.174 28.314 C 311.286 31.389 311.348 36.039 314.314 38.826 C 318.362 42.629 323.856 41.14 325.933 35.677 C 328.746 28.278 319.593 22.546 314.174 28.314 M 183.174 41.314 C 178.698 46.079 181.642 54 187.889 54 C 194.89 54 197.651 46.56 192.545 41.455 C 189.465 38.374 185.986 38.322 183.174 41.314 M 344.455 41.455 C 341.455 44.454 341.323 47.87 344.073 51.365 C 346.939 55.009 352.061 55.009 354.927 51.365 C 357.292 48.359 357.451 47.084 355.89 43.657 C 354.777 41.216 351.217 39 348.407 39 C 347.583 39 345.805 40.105 344.455 41.455 M 92.12 70.905 C 90.539 71.906 90.863 75.266 94.151 92 C 103.941 141.82 134.794 180.442 173 190.704 C 182.751 193.323 201.584 193.115 209.454 190.301 L 215.408 188.173 L 218.954 191.841 C 224.009 197.07 258.259 237.867 259.715 240.392 C 261.445 243.395 261.508 279.336 259.782 278.761 C 259.112 278.537 254.812 272.762 250.226 265.927 C 245.64 259.092 240.033 251.601 237.765 249.28 C 232.805 244.203 222.869 238.817 214 236.397 C 204.938 233.925 186.955 233.93 177.151 236.407 L 169.803 238.264 L 170.384 241.382 C 170.704 243.097 173.071 248.702 175.644 253.838 C 183.794 270.107 197.892 282.946 211.46 286.458 C 217.886 288.121 229 288.548 229 287.132 C 229 286.655 226.547 282.578 223.549 278.073 C 217.128 268.425 216.624 267.12 217.96 263.606 C 221.018 255.561 229.76 260.729 240.965 277.206 C 244.441 282.318 250.371 290.596 254.142 295.602 L 261 304.704 L 261 385.775 L 261 466.847 L 263.589 469.923 C 266.763 473.696 270.72 473.992 273.823 470.688 L 275.994 468.377 L 276.134 355.938 C 276.21 294.097 276.613 242.6 277.03 241.5 C 277.446 240.4 287.553 228.093 299.49 214.151 C 323.71 185.861 320.303 188.212 332.5 191.374 C 344.833 194.57 361.98 192.74 375.841 186.748 C 411.816 171.194 439.182 128.313 445.373 77.796 C 446.246 70.67 445.102 70 432.074 70 C 388.849 70 357.399 79.75 332.31 100.927 C 316.38 114.373 308.115 129.818 305.781 150.5 C 304.819 159.024 304.905 161.876 306.36 169.826 L 308.067 179.151 L 303.283 184.999 C 300.653 188.215 293.775 196.685 288 203.823 C 282.225 210.96 277.43 216.732 277.344 216.65 C 277.257 216.567 276.956 199.175 276.675 178 C 276.393 156.825 276.126 139.405 276.081 139.289 C 276.036 139.173 275.015 138.16 273.811 137.039 C 272.415 135.738 270.265 135 267.868 135 C 260.924 135 261 134.526 261 177.723 C 261 198.775 260.663 215.98 260.25 215.956 C 259.837 215.932 255.9 211.589 251.5 206.304 C 247.1 201.02 240.751 193.503 237.392 189.598 C 229.263 180.152 228.747 179.054 229.962 173.79 C 231.498 167.129 231.191 149.75 229.394 141.697 C 222.397 110.327 193.847 86.176 150.568 75.017 C 134.656 70.915 96.359 68.22 92.12 70.905 M 142.75 100.08 C 141.611 100.743 141 102.321 141 104.596 C 141 107.751 142.526 109.675 156.631 124.296 C 165.228 133.208 174.462 142.703 177.153 145.395 C 179.843 148.087 181.898 150.435 181.72 150.613 C 181.542 150.791 178.64 150.102 175.27 149.082 C 171.9 148.062 163.966 146.179 157.637 144.899 C 146.385 142.623 146.086 142.612 144.066 144.441 C 141.296 146.947 141.456 148.31 144.99 152.336 C 151.749 160.033 169.407 166.871 184.716 167.718 C 194.648 168.268 195.074 168.391 200.066 172.142 C 205.644 176.333 208.718 176.886 212.535 174.385 C 214.46 173.124 215 171.912 215 168.859 C 215 165.522 214.302 164.253 210.25 160.224 C 205.652 155.651 205.432 155.158 203.368 144.817 C 201.045 133.176 195.098 119.3 190.643 115.128 C 185.749 110.543 181 114.523 181 123.209 L 181 127.323 L 169.75 116.341 C 152.889 99.881 148.073 96.98 142.75 100.08 M 384.882 100.757 C 383.441 101.715 376.466 108.033 369.382 114.795 L 356.5 127.09 L 355.911 122.295 C 355.118 115.836 354.224 114.094 351.334 113.369 C 348.036 112.541 345.045 115.483 340.617 123.91 C 337.071 130.658 333.681 141.652 332.543 150.099 C 332.039 153.837 330.993 155.663 326.961 159.846 C 322.764 164.201 322 165.586 322 168.842 C 322 176.82 329.054 178.139 336.856 171.62 C 340.638 168.461 341.287 168.285 351.296 167.718 C 366.714 166.845 382.358 161.188 391.036 153.349 C 395.585 149.238 396.025 146.718 392.585 144.464 C 389.725 142.59 384.52 143.296 366.087 148.059 C 359.811 149.681 354.57 150.894 354.443 150.754 C 354.315 150.614 361.847 142.625 371.18 133 C 395.314 108.111 396 107.328 396 104.677 C 396 99.572 389.895 97.419 384.882 100.757 M 60.189 125.039 C 57.346 127.687 57.25 133.25 60 136 C 62.554 138.554 68.106 138.645 70.345 136.171 C 74.436 131.65 70.926 123 65 123 C 63.557 123 61.392 123.918 60.189 125.039 M 469.235 124.037 C 467.99 124.537 466.502 126.178 465.93 127.684 C 463.871 133.098 466.954 138 472.416 138 C 479.681 138 482.113 128.909 476.087 124.282 C 474.223 122.851 472.354 122.784 469.235 124.037 M 44.695 151.111 C 38.675 154.613 41.88 165 48.98 165 C 51.905 165 56 160.625 56 157.5 C 56 152.192 49.323 148.418 44.695 151.111 M 484.736 151.25 C 479.071 155.552 481.964 165 488.947 165 C 492.348 165 496 161.117 496 157.5 C 496 151.857 489.03 147.99 484.736 151.25 M 76.833 166.841 C 68.622 170.954 71.662 183 80.911 183 C 84.051 183 85.333 182.393 87.411 179.923 C 88.835 178.231 90 176.192 90 175.391 C 90 173.914 87.359 167 86.794 167 C 86.625 167 85.06 166.591 83.316 166.091 C 80.937 165.408 79.319 165.595 76.833 166.841 M 453.421 166.419 C 444.932 170.115 447.884 183 457.22 183 C 466.726 183 469.514 170.903 461.02 166.51 C 457.535 164.708 457.355 164.706 453.421 166.419 M 34.223 180.557 C 30.843 182.924 31.122 189.164 34.734 192.006 C 39.793 195.985 46 192.942 46 186.483 C 46 180.44 39.243 177.04 34.223 180.557 M 494.189 181.039 C 489.511 185.397 492.943 194 499.36 194 C 502.757 194 507 189.935 507 186.68 C 507 185.354 506.067 183.084 504.927 181.635 C 502.343 178.349 497.372 178.073 494.189 181.039 M 133.25 197.662 C 132.432 197.992 132 200.386 132 204.583 L 132 211 L 126.622 211 C 120.355 211 118.719 212.36 119.182 217.185 L 119.5 220.5 L 125.75 220.798 L 132 221.095 L 132 226.476 C 132 232.143 133.633 235 136.871 235 C 139.721 235 140.999 232.857 141.015 228.05 C 141.024 225.547 141.371 222.965 141.787 222.31 C 142.203 221.656 145.009 220.981 148.022 220.81 C 153.421 220.504 153.505 220.452 153.818 217.185 C 154.269 212.494 152.61 211 146.95 211 L 142.144 211 L 141.449 205.25 C 141.066 202.088 140.304 198.938 139.754 198.25 C 138.754 196.999 135.6 196.714 133.25 197.662 M 429.222 205.233 C 427.969 205.837 424.773 209.294 422.119 212.915 C 417.617 219.06 379.967 273.327 366.21 293.5 C 362.835 298.45 357.919 305.425 355.286 309 C 351.191 314.562 350.5 316.171 350.5 320.145 C 350.5 325.801 351.936 327.586 361.5 333.817 C 371.703 340.464 383.784 353.044 387.73 361.13 C 396.228 378.544 396.044 396 387.362 396 C 381.378 396 379.163 392.862 377.905 382.607 C 376.095 367.843 365.556 353.767 348.907 343.875 C 345.232 341.692 341.524 339.132 340.669 338.187 C 339.332 336.71 339.071 331.2 338.807 298.984 C 338.504 261.958 338.472 261.451 336.197 257.483 C 329.481 245.77 313.048 244.948 306.556 256.001 C 304.54 259.432 304.5 260.732 304.5 322.5 C 304.5 384.957 304.519 385.54 306.661 390.176 C 309.019 395.279 313.209 398.645 342.5 418.974 C 350.75 424.699 364.25 434.216 372.5 440.123 C 392.959 454.77 398.511 458 403.223 458 C 407.79 458 413.562 455.753 416.835 452.702 C 418.134 451.491 438.89 421.025 462.959 385 C 487.028 348.975 509.108 316.027 512.027 311.782 C 516.546 305.209 517.333 303.382 517.333 299.468 C 517.333 295.642 516.803 294.342 514.17 291.709 C 510.13 287.668 504.422 287.315 500.637 290.871 C 499.275 292.151 489.494 305.809 478.9 321.223 C 459.264 349.794 456.787 352.542 451.834 351.246 C 449.315 350.588 446 346.244 446 343.602 C 446 341.646 459.863 321.131 490.667 277.5 C 497.268 268.15 503.194 259.517 503.835 258.316 C 508.255 250.031 500.494 240.189 491.902 243.184 C 488.456 244.385 486.881 246.484 457.527 289 C 444.426 307.975 432.564 324.738 431.167 326.25 C 426.222 331.601 417.984 328.783 418.014 321.75 C 418.025 319.231 420.503 315.012 429.028 303 C 435.079 294.475 442.061 284.575 444.544 281 C 447.026 277.425 452.042 270.225 455.689 265 C 483.096 225.733 483.738 224.407 478.411 218.077 C 476.263 215.524 475.093 215 471.546 215 C 468.863 215 466.381 215.703 464.885 216.888 C 463.573 217.926 458.45 224.695 453.5 231.93 C 448.55 239.164 439.325 252.493 433 261.548 C 426.675 270.603 417.317 284.038 412.203 291.404 C 402.172 305.854 399.198 308.323 394.435 306.152 C 391.454 304.794 389.697 300.656 390.517 296.924 C 390.846 295.424 393.873 290.439 397.243 285.848 C 400.612 281.257 409.435 268.725 416.848 258 C 424.261 247.275 432.615 235.222 435.413 231.215 C 445.65 216.556 446.371 214.553 443.452 208.907 C 441.094 204.347 434.561 202.66 429.222 205.233 M 362.635 216.073 C 357.623 220.015 360.253 229 366.418 229 C 370.227 229 371.956 227.985 373.616 224.776 C 376.208 219.763 372.441 214 366.57 214 C 365.855 214 364.084 214.933 362.635 216.073 M 35.539 229.938 C 35.22 230.453 34.242 235.966 33.366 242.188 C 31.326 256.682 32.025 281.242 34.87 295 C 39.45 317.147 46.369 331.535 69.366 366.734 C 78.306 380.418 87.293 394.367 89.336 397.73 C 92.124 402.319 94.123 404.365 97.342 405.923 C 104.937 409.6 107.608 408.93 118.929 400.505 C 124.468 396.382 129 392.393 129 391.64 C 129 390.887 124.938 384.698 119.972 377.886 C 99.384 349.64 95.099 341.728 90.441 323.368 C 87.626 312.271 85.483 297.79 86.329 295.585 C 87.471 292.61 92.786 293.87 104.268 299.838 C 119.425 307.716 132.713 316.037 138.619 321.349 C 141.304 323.763 149.107 333.722 155.959 343.48 C 162.812 353.239 168.955 361.429 169.61 361.681 C 170.266 361.932 173.21 360.451 176.151 358.389 C 192.302 347.067 194 345.17 194 338.451 C 194 332.995 192.053 329.745 179.321 313.938 C 144.685 270.939 130.696 257.771 106.697 245.577 C 97.791 241.052 79.936 234.592 70.704 232.556 C 65.215 231.345 45.544 229 40.873 229 C 38.258 229 35.857 229.422 35.539 229.938 M 224.98 316.038 C 223.645 318.531 224.524 321.675 226.913 322.954 C 230.853 325.062 235.032 318.432 231.8 315.2 C 229.926 313.326 226.185 313.785 224.98 316.038 M 113.094 327.906 C 109.849 331.151 110.393 335.754 114.831 342.595 C 119.086 349.155 146.423 387.537 148.721 390.179 C 150.068 391.727 150.683 391.498 156.591 387.248 C 160.116 384.712 163 382.233 163 381.739 C 163 380.936 138.061 344.847 130.5 334.708 C 126.66 329.56 123.42 327.266 118.844 326.458 C 115.917 325.941 114.77 326.23 113.094 327.906 M 220.02 364.284 C 214.661 366.996 214.265 373.616 219.24 377.33 C 221.562 379.064 222.238 379.144 224.975 378.011 C 231.608 375.263 231.797 367.615 225.316 364.163 C 222.679 362.759 223.052 362.75 220.02 364.284 M 174.622 392.639 C 169.022 395.672 155.234 405.948 154.621 407.545 C 153.086 411.547 155.908 419.26 159.398 420.599 C 160.16 420.892 166.455 417.308 173.387 412.634 C 180.319 407.961 186.893 403.851 187.995 403.502 C 192.346 402.121 189.36 394.018 183.785 392.075 C 179.733 390.662 178.084 390.764 174.622 392.639 M 297.966 414.82 C 291.933 417.494 288.009 423.584 288.004 430.282 C 287.996 440.143 289.87 442.256 312.646 458.069 C 320.816 463.741 335.15 473.84 344.5 480.511 C 373.335 501.086 376.721 503.218 381.311 503.694 C 389.646 504.56 398.017 497.776 399.509 488.949 C 400.039 485.811 399.678 483.931 397.843 480.267 C 395.832 476.252 393.364 474.095 380.427 465.045 C 364.405 453.836 362.271 452.322 332.188 430.802 C 321.566 423.204 311.576 416.315 309.988 415.494 C 307.027 413.962 300.701 413.608 297.966 414.82 M 191.446 418.125 C 180.291 425.173 169.875 433.341 168.396 436.201 C 167.396 438.134 167.043 440.418 167.428 442.467 C 168.042 445.74 212.37 511.318 219.903 520.097 C 224.682 525.666 232.591 529.635 242.805 531.59 C 252.984 533.537 288 533.586 288 531.653 C 288 530.062 270.069 503.632 231.581 448.49 C 226.586 441.334 220.7 432.8 218.5 429.524 C 216.3 426.249 212.599 421.641 210.276 419.284 C 206.46 415.413 205.587 415 201.222 415 C 197.534 415 195.222 415.739 191.446 418.125 M 93.223 441.557 C 89.856 443.914 90.121 450.164 93.707 452.984 C 100.525 458.347 108.906 448.57 102.961 442.189 C 100.569 439.621 96.374 439.349 93.223 441.557 M 136.455 467.05 C 132.367 471.567 135.003 479.02 141.225 480.539 C 143.421 481.075 144.536 480.618 146.975 478.179 C 150.529 474.625 150.827 471.322 147.927 467.635 C 145.267 464.253 139.264 463.946 136.455 467.05 M 240.121 500.71 C 233.783 503.833 232.376 512.838 237.328 518.594 C 238.95 520.481 240.856 521.342 244.256 521.725 C 248.604 522.215 249.203 521.997 252.473 518.727 C 255.435 515.765 256 514.498 256 510.823 C 256 505.824 254.151 502.646 249.989 500.494 C 246.316 498.595 244.326 498.639 240.121 500.71 M 322.2 506.2 C 320.542 507.858 320.696 511.503 322.487 512.989 C 323.34 513.697 325.046 513.954 326.487 513.593 C 330.763 512.519 329.462 505 325 505 C 324.12 505 322.86 505.54 322.2 506.2" stroke-linecap="round" />
</g>
</svg>