<?xml version="1.0" encoding="UTF-8" standalone="no" ?>
<!DOCTYPE svg PUBLIC "-//W3C//DTD SVG 1.1//EN" "http://www.w3.org/Graphics/SVG/1.1/DTD/svg11.dtd">
<svg xmlns="http://www.w3.org/2000/svg" xmlns:xlink="http://www.w3.org/1999/xlink" version="1.1" width="1080" height="1080" viewBox="0 0 1080 1080" xml:space="preserve">
<desc>Created with Fabric.js 5.2.4</desc>
<defs>
</defs>
<rect x="0" y="0" width="100%" height="100%" fill="transparent"></rect>
<g transform="matrix(1 0 0 1 540 540)" id="c21ffabb-e89e-49a8-b94e-e9d293eaffbb"  >
<rect style="stroke: none; stroke-width: 1; stroke-dasharray: none; stroke-linecap: butt; stroke-dashoffset: 0; stroke-linejoin: miter; stroke-miterlimit: 4; fill: rgb(255,255,255); fill-rule: nonzero; opacity: 1; visibility: hidden;" vector-effect="non-scaling-stroke"  x="-540" y="-540" rx="0" ry="0" width="1080" height="1080" />
</g>
<g transform="matrix(1 0 0 1 540 540)" id="83590c4d-ff78-430e-bf11-fb8ef0e47a55"  >
</g>
<g transform="matrix(NaN NaN NaN NaN 0 0)"  >
<g style=""   >
</g>
</g>
<g transform="matrix(1 0 0 1 540.92 539.77)"  >
<path style="stroke: none; stroke-width: 1; stroke-dasharray: none; stroke-linecap: butt; stroke-dashoffset: 0; stroke-linejoin: miter; stroke-miterlimit: 4; fill: rgb(234,173,44); fill-rule: evenodd; opacity: 1;" vector-effect="non-scaling-stroke"  transform=" translate(-411.42, -397.77)" d="M 377.099 21.488 C 312.636 28.204 252.613 50.92 200.364 88.374 C 168.901 110.928 143.905 134.737 119.92 165 C 107.885 180.185 89.439 208.572 86.93 215.772 C 85.045 221.178 85.667 221.791 119.425 247.805 C 135.611 260.279 138.439 262.154 140.093 261.509 C 140.867 261.207 144.776 255.456 148.779 248.73 C 173.824 206.65 210.883 168.548 252.212 142.385 C 267.128 132.943 296.29 118.81 312.805 113.018 C 328.079 107.662 345.186 103.088 359 100.667 C 381.02 96.807 384.9 96.5 411.5 96.523 C 441.18 96.548 454.203 97.985 480 104.082 C 543.982 119.204 606.22 159.363 649.11 213.199 C 658.059 224.432 670.672 242.923 676.364 253.155 C 680.406 260.421 682.302 262.486 684.237 261.731 C 685.75 261.141 723.489 231.788 730.252 225.941 C 736.391 220.633 736.923 218.365 733.545 211.904 C 729.582 204.325 715.102 182.582 705.833 170.293 C 685.58 143.44 655.29 113.094 630 94.317 C 575.974 54.206 521.363 31.594 456.455 22.459 C 440.767 20.251 394.413 19.684 377.099 21.488 M 404.5 131.954 C 399.803 133.897 396 140.33 396 146.331 C 396 153.586 403.43 160.947 410.79 160.984 C 414.881 161.004 421.477 157.728 423.471 154.685 C 427.562 148.441 426.552 140.552 420.944 134.944 C 417.326 131.326 416.566 131.005 411.75 131.063 C 408.863 131.098 405.6 131.499 404.5 131.954 M 302.5 167.861 C 297.724 170.81 295.8 173.599 295.265 178.341 C 294.221 187.599 299.606 194.75 308.365 195.738 C 320.594 197.116 328.793 183.492 322.177 172.786 C 318.221 166.385 308.734 164.01 302.5 167.861 M 448.366 207.846 C 404.842 220.34 368.505 231.166 367.616 231.904 C 366.146 233.124 366 243.176 366 343.206 L 366 453.167 L 363.25 451.036 C 354.593 444.327 352.281 442.875 347.292 441.008 C 339.002 437.906 328.723 436.768 319.952 437.98 C 299.68 440.781 281.341 457.726 276.54 478.093 C 270.223 504.893 285.412 532.117 311.794 541.28 C 319.851 544.078 338.253 544.265 346 541.628 C 365.116 535.121 379.416 520.433 385.374 501.186 C 387.394 494.66 387.456 492.05 387.972 392.083 L 388.5 289.666 L 392.5 288.411 C 394.7 287.721 406.625 284.374 419 280.974 C 431.375 277.574 449.15 272.619 458.5 269.963 C 487.925 261.603 508.756 256 510.407 256 C 511.856 256 512 267.524 512 383.5 C 512 453.625 511.705 511 511.344 511 C 510.984 511 509.155 509.83 507.281 508.401 C 501.139 503.716 492.371 500.912 482 500.317 C 463.858 499.275 452.318 503.433 440.56 515.251 C 429.784 526.08 425.035 537.318 425.012 552.04 C 424.973 576.429 441.853 598.393 465 604.074 C 472.169 605.834 486.175 605.833 492.5 604.072 C 512.372 598.54 527.925 582.738 532.434 563.5 C 533.93 557.119 534.05 540.087 533.788 371 L 533.5 185.5 L 530.5 185.315 C 528.85 185.213 491.89 195.352 448.366 207.846 M 72 252.704 C 68.934 253.819 65.005 258.455 64.402 261.669 C 63.549 266.216 64.509 269.372 67.931 273.269 L 70.833 276.574 L 67.31 286.537 C 60.009 307.183 55.523 325.241 52.43 346.439 C 50.686 358.385 49.453 397.896 50.656 403.265 L 51.5 407.03 L 62.647 399.388 L 73.794 391.746 L 74.434 379.623 C 75.537 358.733 78.296 339.508 83.135 319 C 85.171 310.369 90.874 292 91.517 292 C 91.711 292 95.192 294.64 99.253 297.867 C 110.691 306.957 112.825 307.623 118.81 303.974 C 124.985 300.21 126.368 292.28 121.852 286.538 C 120.088 284.296 100.813 268.716 84.382 256.25 C 79.032 252.192 75.885 251.29 72 252.704 M 740.624 253.638 C 736.682 255.774 703.036 282.651 700.254 285.887 C 695.466 291.458 696.872 300.122 703.19 303.974 C 709.21 307.645 712.221 306.648 724.145 297.04 C 729.667 292.591 730.628 292.138 731.635 293.516 C 732.985 295.361 740.277 321.12 742.518 331.961 C 745.561 346.676 747.049 358.734 747.582 373 C 747.88 380.975 748.321 388.479 748.562 389.675 C 748.846 391.082 752.913 394.555 760.081 399.511 C 766.175 403.725 771.386 406.948 771.661 406.673 C 772.835 405.498 773.155 378.383 772.144 365.742 C 770.078 339.921 765.619 317.843 757.958 295.5 C 755.695 288.9 753.375 282.108 752.802 280.407 C 751.879 277.665 752.115 276.824 754.88 273.007 C 763.291 261.395 752.748 247.071 740.624 253.638 M 285.781 264.75 C 284.941 265.712 283.685 268.3 282.99 270.5 C 280.104 279.64 275.537 286.064 267.768 291.912 C 266.815 292.629 262.54 294.404 258.268 295.858 C 251.836 298.045 250.443 298.901 250.17 300.832 C 249.816 303.329 252.463 307 254.617 307 C 258.371 307 267.887 311.75 272.181 315.766 C 276.617 319.915 283 330.502 283 333.709 C 283 336.891 286.068 341 288.443 341 C 290.396 341 291.14 340.128 292.5 336.25 C 298.634 318.755 304.119 312.668 318 307.955 C 325.392 305.445 325.5 305.358 325.5 301.958 C 325.5 298.811 325.15 298.398 321.5 297.246 C 304.812 291.976 298.754 286.121 293.555 270.24 C 292.608 267.348 291 264.535 289.982 263.99 C 287.575 262.702 287.569 262.703 285.781 264.75 M 580.711 294.928 C 576.539 298.82 576.5 298.921 576.5 305.848 C 576.5 311.916 576.83 313.197 579 315.548 C 584.099 321.075 590.548 322.292 597.079 318.96 C 602.897 315.992 605.193 311.802 604.756 304.955 C 604.173 295.825 599.09 291 590.057 291 C 585.464 291 584.479 291.414 580.711 294.928 M 139.127 344.471 C 117.663 352.441 104.722 371.796 106.345 393.5 C 106.706 398.325 109.33 410.628 112.956 424.5 C 116.263 437.15 122.62 461.675 127.082 479 C 169.502 643.689 174.389 661.917 178.036 669.069 C 181.01 674.901 187.63 682.657 193.244 686.886 C 213.546 702.18 245.202 698.566 261.424 679.102 C 269.525 669.381 273 660.148 273 648.34 C 273 641.255 271.842 635.964 262.636 601 C 252.937 564.158 248.322 546.287 231.006 478.5 C 227.072 463.1 220.933 439.475 217.363 426 C 213.793 412.525 209.299 395.425 207.376 388 C 203.237 372.022 200.318 365.815 193.275 358.022 C 182.802 346.433 172.282 341.967 155.661 342.052 C 147.527 342.094 144.229 342.576 139.127 344.471 M 651.798 343.88 C 643.764 346.52 638.439 349.885 631.379 356.78 C 624.299 363.696 620.369 371.204 617.132 384 C 615.949 388.675 610.521 409.6 605.07 430.5 C 599.619 451.4 592.141 480.2 588.453 494.5 C 584.764 508.8 580.041 527.025 577.957 535 C 575.873 542.975 571.889 558.275 569.104 569 C 566.319 579.725 563.13 591.875 562.018 596 C 552.43 631.559 550.695 639.595 550.682 648.5 C 550.666 659.212 552.701 665.724 558.929 674.896 C 569.921 691.082 589.69 699.104 609.891 695.578 C 620.632 693.703 627.622 690.22 635.571 682.784 C 646.205 672.837 647.987 668.614 658.046 629.5 C 671.337 577.819 701.61 460.928 711.268 424 C 716.923 402.376 717.413 399.662 717.404 390 C 717.396 381.47 716.97 378.426 715.135 373.775 C 710.222 361.329 698.614 349.729 686.225 344.888 C 678.12 341.72 659.982 341.189 651.798 343.88 M 441.9 355.134 C 428.969 362.633 434.828 383 449.916 383 C 457.941 383 465 376.126 465 368.311 C 465 363.605 460.937 356.718 457 354.752 C 452.337 352.422 446.313 352.574 441.9 355.134 M 750.7 435.821 C 749.219 441.694 745.734 455.05 742.955 465.5 C 740.176 475.95 734.157 499.125 729.58 517 C 725.003 534.875 715.293 572.675 708.003 601 C 694.485 653.52 691.104 667 691.453 667 C 691.561 667 694.766 665.928 698.575 664.618 C 720.599 657.042 739.369 644.481 757.238 625.363 C 777.217 603.986 791.126 576.407 797.676 545.183 C 801.197 528.395 801.462 504.773 798.294 489.987 C 793.434 467.299 781.947 447.784 765.057 433.522 C 753.124 423.446 753.849 423.33 750.7 435.821 M 60.816 431.814 C 41.247 447.366 29.022 467.253 24.647 490.65 C 19.969 515.671 22.286 538.904 32.507 569.452 C 40.471 593.254 53.144 613.205 71.653 631.077 C 85.24 644.196 92.529 649.385 108.77 657.501 C 115.896 661.061 130.786 667 132.587 667 C 132.718 667 131.105 660.362 129.004 652.25 C 126.903 644.138 120.652 619.725 115.113 598 C 109.574 576.275 99.908 538.7 93.632 514.5 C 69.481 421.365 70.766 426 69.09 426 C 68.563 426 64.839 428.616 60.816 431.814 M 339.071 598.752 C 334.292 601.189 331.792 605.027 331.305 610.676 C 330.265 622.742 341.07 630.159 352.392 625.151 C 363.802 620.104 363.135 603.297 351.329 598.364 C 346.941 596.531 343.194 596.649 339.071 598.752 M 405.201 629.75 C 404.629 631.263 403.363 635.165 402.389 638.422 C 400.308 645.379 394.332 654.748 389.743 658.245 C 385.123 661.765 377.427 665.477 370.774 667.393 C 364.445 669.215 362.223 671.68 363.968 674.941 C 364.642 676.199 367.903 677.766 373.253 679.401 C 388.131 683.947 398.692 694.048 402.842 707.699 C 405.661 716.973 407.046 718.755 410.287 717.279 C 412.052 716.475 413.309 714.562 414.535 710.818 C 420.255 693.349 432.616 681.155 447.218 678.578 C 452.904 677.574 455.508 673.924 453.168 670.237 C 452.727 669.543 449.416 668.157 445.81 667.157 C 431.833 663.281 420.333 652.928 416.534 640.801 C 412.462 627.801 412.027 627 409.039 627 C 406.908 627 405.995 627.654 405.201 629.75 M 293.4 728.4 C 290.652 731.148 290 732.577 290 735.853 C 290 742.679 291.646 744.8 300.338 749.17 C 325.322 761.731 332.67 763.484 338.003 758.15 C 344.555 751.599 342.456 743.509 332.972 738.76 C 302.554 723.531 299.158 722.642 293.4 728.4 M 502.033 732.828 C 484.329 741.234 482.016 743.199 482.005 749.846 C 482.002 751.686 482.749 754.46 483.665 756.01 C 487.105 761.834 493.71 762.484 503.567 757.969 C 525.276 748.026 530.635 745.097 531.802 742.534 C 534.295 737.065 532.479 729.85 527.783 726.561 C 523.565 723.606 519.239 724.659 502.033 732.828 M 388.5 752.716 C 385.34 753.48 382.063 757.057 380.868 761.046 C 379.485 765.663 381.863 771.361 386.085 773.544 C 390.143 775.642 434.807 775.668 438.855 773.575 C 443.828 771.003 445.76 761.957 442.369 757.117 C 439.183 752.567 435.717 751.991 412.282 752.116 C 400.302 752.18 389.6 752.45 388.5 752.716" stroke-linecap="round" />
</g>
<g transform="matrix(1 0 0 1 540 540)"  >
<path style="stroke: none; stroke-width: 1; stroke-dasharray: none; stroke-linecap: butt; stroke-dashoffset: 0; stroke-linejoin: miter; stroke-miterlimit: 4; fill: rgb(0,0,0); fill-opacity: 0; fill-rule: evenodd; opacity: 1;" vector-effect="non-scaling-stroke"  transform=" translate(-410.5, -398)" d="M 0 398.001 L 0 796.002 L 410.25 795.751 L 820.5 795.5 L 820.751 397.75 L 821.002 0 L 410.501 0 L 0 0 L 0 398.001 M 0.495 398.5 C 0.495 617.4 0.61 707.099 0.75 597.831 C 0.89 488.564 0.89 309.464 0.75 199.831 C 0.61 90.199 0.495 179.6 0.495 398.5 M 377.099 21.488 C 312.636 28.204 252.613 50.92 200.364 88.374 C 168.901 110.928 143.905 134.737 119.92 165 C 107.885 180.185 89.439 208.572 86.93 215.772 C 85.045 221.178 85.667 221.791 119.425 247.805 C 135.611 260.279 138.439 262.154 140.093 261.509 C 140.867 261.207 144.776 255.456 148.779 248.73 C 173.824 206.65 210.883 168.548 252.212 142.385 C 267.128 132.943 296.29 118.81 312.805 113.018 C 328.079 107.662 345.186 103.088 359 100.667 C 381.02 96.807 384.9 96.5 411.5 96.523 C 441.18 96.548 454.203 97.985 480 104.082 C 543.982 119.204 606.22 159.363 649.11 213.199 C 658.059 224.432 670.672 242.923 676.364 253.155 C 680.406 260.421 682.302 262.486 684.237 261.731 C 685.75 261.141 723.489 231.788 730.252 225.941 C 736.391 220.633 736.923 218.365 733.545 211.904 C 729.582 204.325 715.102 182.582 705.833 170.293 C 685.58 143.44 655.29 113.094 630 94.317 C 575.974 54.206 521.363 31.594 456.455 22.459 C 440.767 20.251 394.413 19.684 377.099 21.488 M 404.5 131.954 C 399.803 133.897 396 140.33 396 146.331 C 396 153.586 403.43 160.947 410.79 160.984 C 414.881 161.004 421.477 157.728 423.471 154.685 C 427.562 148.441 426.552 140.552 420.944 134.944 C 417.326 131.326 416.566 131.005 411.75 131.063 C 408.863 131.098 405.6 131.499 404.5 131.954 M 302.5 167.861 C 297.724 170.81 295.8 173.599 295.265 178.341 C 294.221 187.599 299.606 194.75 308.365 195.738 C 320.594 197.116 328.793 183.492 322.177 172.786 C 318.221 166.385 308.734 164.01 302.5 167.861 M 448.366 207.846 C 404.842 220.34 368.505 231.166 367.616 231.904 C 366.146 233.124 366 243.176 366 343.206 L 366 453.167 L 363.25 451.036 C 354.593 444.327 352.281 442.875 347.292 441.008 C 339.002 437.906 328.723 436.768 319.952 437.98 C 299.68 440.781 281.341 457.726 276.54 478.093 C 270.223 504.893 285.412 532.117 311.794 541.28 C 319.851 544.078 338.253 544.265 346 541.628 C 365.116 535.121 379.416 520.433 385.374 501.186 C 387.394 494.66 387.456 492.05 387.972 392.083 L 388.5 289.666 L 392.5 288.411 C 394.7 287.721 406.625 284.374 419 280.974 C 431.375 277.574 449.15 272.619 458.5 269.963 C 487.925 261.603 508.756 256 510.407 256 C 511.856 256 512 267.524 512 383.5 C 512 453.625 511.705 511 511.344 511 C 510.984 511 509.155 509.83 507.281 508.401 C 501.139 503.716 492.371 500.912 482 500.317 C 463.858 499.275 452.318 503.433 440.56 515.251 C 429.784 526.08 425.035 537.318 425.012 552.04 C 424.973 576.429 441.853 598.393 465 604.074 C 472.169 605.834 486.175 605.833 492.5 604.072 C 512.372 598.54 527.925 582.738 532.434 563.5 C 533.93 557.119 534.05 540.087 533.788 371 L 533.5 185.5 L 530.5 185.315 C 528.85 185.213 491.89 195.352 448.366 207.846 M 72 252.704 C 68.934 253.819 65.005 258.455 64.402 261.669 C 63.549 266.216 64.509 269.372 67.931 273.269 L 70.833 276.574 L 67.31 286.537 C 60.009 307.183 55.523 325.241 52.43 346.439 C 50.686 358.385 49.453 397.896 50.656 403.265 L 51.5 407.03 L 62.647 399.388 L 73.794 391.746 L 74.434 379.623 C 75.537 358.733 78.296 339.508 83.135 319 C 85.171 310.369 90.874 292 91.517 292 C 91.711 292 95.192 294.64 99.253 297.867 C 110.691 306.957 112.825 307.623 118.81 303.974 C 124.985 300.21 126.368 292.28 121.852 286.538 C 120.088 284.296 100.813 268.716 84.382 256.25 C 79.032 252.192 75.885 251.29 72 252.704 M 740.624 253.638 C 736.682 255.774 703.036 282.651 700.254 285.887 C 695.466 291.458 696.872 300.122 703.19 303.974 C 709.21 307.645 712.221 306.648 724.145 297.04 C 729.667 292.591 730.628 292.138 731.635 293.516 C 732.985 295.361 740.277 321.12 742.518 331.961 C 745.561 346.676 747.049 358.734 747.582 373 C 747.88 380.975 748.321 388.479 748.562 389.675 C 748.846 391.082 752.913 394.555 760.081 399.511 C 766.175 403.725 771.386 406.948 771.661 406.673 C 772.835 405.498 773.155 378.383 772.144 365.742 C 770.078 339.921 765.619 317.843 757.958 295.5 C 755.695 288.9 753.375 282.108 752.802 280.407 C 751.879 277.665 752.115 276.824 754.88 273.007 C 763.291 261.395 752.748 247.071 740.624 253.638 M 285.781 264.75 C 284.941 265.712 283.685 268.3 282.99 270.5 C 280.104 279.64 275.537 286.064 267.768 291.912 C 266.815 292.629 262.54 294.404 258.268 295.858 C 251.836 298.045 250.443 298.901 250.17 300.832 C 249.816 303.329 252.463 307 254.617 307 C 258.371 307 267.887 311.75 272.181 315.766 C 276.617 319.915 283 330.502 283 333.709 C 283 336.891 286.068 341 288.443 341 C 290.396 341 291.14 340.128 292.5 336.25 C 298.634 318.755 304.119 312.668 318 307.955 C 325.392 305.445 325.5 305.358 325.5 301.958 C 325.5 298.811 325.15 298.398 321.5 297.246 C 304.812 291.976 298.754 286.121 293.555 270.24 C 292.608 267.348 291 264.535 289.982 263.99 C 287.575 262.702 287.569 262.703 285.781 264.75 M 580.711 294.928 C 576.539 298.82 576.5 298.921 576.5 305.848 C 576.5 311.916 576.83 313.197 579 315.548 C 584.099 321.075 590.548 322.292 597.079 318.96 C 602.897 315.992 605.193 311.802 604.756 304.955 C 604.173 295.825 599.09 291 590.057 291 C 585.464 291 584.479 291.414 580.711 294.928 M 139.127 344.471 C 117.663 352.441 104.722 371.796 106.345 393.5 C 106.706 398.325 109.33 410.628 112.956 424.5 C 116.263 437.15 122.62 461.675 127.082 479 C 169.502 643.689 174.389 661.917 178.036 669.069 C 181.01 674.901 187.63 682.657 193.244 686.886 C 213.546 702.18 245.202 698.566 261.424 679.102 C 269.525 669.381 273 660.148 273 648.34 C 273 641.255 271.842 635.964 262.636 601 C 252.937 564.158 248.322 546.287 231.006 478.5 C 227.072 463.1 220.933 439.475 217.363 426 C 213.793 412.525 209.299 395.425 207.376 388 C 203.237 372.022 200.318 365.815 193.275 358.022 C 182.802 346.433 172.282 341.967 155.661 342.052 C 147.527 342.094 144.229 342.576 139.127 344.471 M 651.798 343.88 C 643.764 346.52 638.439 349.885 631.379 356.78 C 624.299 363.696 620.369 371.204 617.132 384 C 615.949 388.675 610.521 409.6 605.07 430.5 C 599.619 451.4 592.141 480.2 588.453 494.5 C 584.764 508.8 580.041 527.025 577.957 535 C 575.873 542.975 571.889 558.275 569.104 569 C 566.319 579.725 563.13 591.875 562.018 596 C 552.43 631.559 550.695 639.595 550.682 648.5 C 550.666 659.212 552.701 665.724 558.929 674.896 C 569.921 691.082 589.69 699.104 609.891 695.578 C 620.632 693.703 627.622 690.22 635.571 682.784 C 646.205 672.837 647.987 668.614 658.046 629.5 C 671.337 577.819 701.61 460.928 711.268 424 C 716.923 402.376 717.413 399.662 717.404 390 C 717.396 381.47 716.97 378.426 715.135 373.775 C 710.222 361.329 698.614 349.729 686.225 344.888 C 678.12 341.72 659.982 341.189 651.798 343.88 M 441.9 355.134 C 428.969 362.633 434.828 383 449.916 383 C 457.941 383 465 376.126 465 368.311 C 465 363.605 460.937 356.718 457 354.752 C 452.337 352.422 446.313 352.574 441.9 355.134 M 750.7 435.821 C 749.219 441.694 745.734 455.05 742.955 465.5 C 740.176 475.95 734.157 499.125 729.58 517 C 725.003 534.875 715.293 572.675 708.003 601 C 694.485 653.52 691.104 667 691.453 667 C 691.561 667 694.766 665.928 698.575 664.618 C 720.599 657.042 739.369 644.481 757.238 625.363 C 777.217 603.986 791.126 576.407 797.676 545.183 C 801.197 528.395 801.462 504.773 798.294 489.987 C 793.434 467.299 781.947 447.784 765.057 433.522 C 753.124 423.446 753.849 423.33 750.7 435.821 M 60.816 431.814 C 41.247 447.366 29.022 467.253 24.647 490.65 C 19.969 515.671 22.286 538.904 32.507 569.452 C 40.471 593.254 53.144 613.205 71.653 631.077 C 85.24 644.196 92.529 649.385 108.77 657.501 C 115.896 661.061 130.786 667 132.587 667 C 132.718 667 131.105 660.362 129.004 652.25 C 126.903 644.138 120.652 619.725 115.113 598 C 109.574 576.275 99.908 538.7 93.632 514.5 C 69.481 421.365 70.766 426 69.09 426 C 68.563 426 64.839 428.616 60.816 431.814 M 339.071 598.752 C 334.292 601.189 331.792 605.027 331.305 610.676 C 330.265 622.742 341.07 630.159 352.392 625.151 C 363.802 620.104 363.135 603.297 351.329 598.364 C 346.941 596.531 343.194 596.649 339.071 598.752 M 405.201 629.75 C 404.629 631.263 403.363 635.165 402.389 638.422 C 400.308 645.379 394.332 654.748 389.743 658.245 C 385.123 661.765 377.427 665.477 370.774 667.393 C 364.445 669.215 362.223 671.68 363.968 674.941 C 364.642 676.199 367.903 677.766 373.253 679.401 C 388.131 683.947 398.692 694.048 402.842 707.699 C 405.661 716.973 407.046 718.755 410.287 717.279 C 412.052 716.475 413.309 714.562 414.535 710.818 C 420.255 693.349 432.616 681.155 447.218 678.578 C 452.904 677.574 455.508 673.924 453.168 670.237 C 452.727 669.543 449.416 668.157 445.81 667.157 C 431.833 663.281 420.333 652.928 416.534 640.801 C 412.462 627.801 412.027 627 409.039 627 C 406.908 627 405.995 627.654 405.201 629.75 M 293.4 728.4 C 290.652 731.148 290 732.577 290 735.853 C 290 742.679 291.646 744.8 300.338 749.17 C 325.322 761.731 332.67 763.484 338.003 758.15 C 344.555 751.599 342.456 743.509 332.972 738.76 C 302.554 723.531 299.158 722.642 293.4 728.4 M 502.033 732.828 C 484.329 741.234 482.016 743.199 482.005 749.846 C 482.002 751.686 482.749 754.46 483.665 756.01 C 487.105 761.834 493.71 762.484 503.567 757.969 C 525.276 748.026 530.635 745.097 531.802 742.534 C 534.295 737.065 532.479 729.85 527.783 726.561 C 523.565 723.606 519.239 724.659 502.033 732.828 M 388.5 752.716 C 385.34 753.48 382.063 757.057 380.868 761.046 C 379.485 765.663 381.863 771.361 386.085 773.544 C 390.143 775.642 434.807 775.668 438.855 773.575 C 443.828 771.003 445.76 761.957 442.369 757.117 C 439.183 752.567 435.717 751.991 412.282 752.116 C 400.302 752.18 389.6 752.45 388.5 752.716" stroke-linecap="round" />
</g>
</svg>